<svg xmlns="http://www.w3.org/2000/svg" width="1024" height="1024" viewBox="0 0 1024 1024">
  <defs>
    <linearGradient id="bg" x1="0" y1="0" x2="0" y2="1">
      <stop offset="0" stop-color="#0A0E1A"/>
      <stop offset="1" stop-color="#131C32"/>
    </linearGradient>
    <radialGradient id="halo" cx="0.5" cy="0.5" r="0.5">
      <stop offset="0" stop-color="#10B981" stop-opacity="0.30"/>
      <stop offset="1" stop-color="#10B981" stop-opacity="0"/>
    </radialGradient>
    <linearGradient id="mesh" x1="0.1" y1="0.2" x2="0.9" y2="0.8">
      <stop offset="0" stop-color="#34D399"/>
      <stop offset="0.55" stop-color="#22D3EE"/>
      <stop offset="1" stop-color="#38BDF8"/>
    </linearGradient>
    <radialGradient id="node" cx="0.5" cy="0.4" r="0.6">
      <stop offset="0" stop-color="#ECFEFF"/>
      <stop offset="1" stop-color="#5EEAD4"/>
    </radialGradient>
    <filter id="glow" x="-40%" y="-40%" width="180%" height="180%">
      <feGaussianBlur stdDeviation="18" result="b"/>
      <feMerge><feMergeNode in="b"/><feMergeNode in="SourceGraphic"/></feMerge>
    </filter>
  </defs>

  <!-- backdrop -->
  <rect x="0" y="0" width="1024" height="1024" rx="208" fill="url(#bg)"/>
  <circle cx="512" cy="512" r="430" fill="url(#halo)"/>

  <!-- infinity figure-8: strands cross at the center hub -->
  <g fill="none" stroke="url(#mesh)" stroke-width="58" stroke-linecap="round" filter="url(#glow)">
    <path d="M512 512 C590 430 742 430 742 512 C742 594 590 594 512 512
             C434 430 282 430 282 512 C282 594 434 594 512 512 Z"/>
  </g>

  <!-- peer nodes riding the curve -->
  <g fill="url(#node)" stroke="#0A0E1A" stroke-width="6">
    <circle cx="742" cy="512" r="30"/>
    <circle cx="282" cy="512" r="30"/>
    <circle cx="656" cy="450" r="26"/>
    <circle cx="656" cy="574" r="26"/>
    <circle cx="368" cy="450" r="26"/>
    <circle cx="368" cy="574" r="26"/>
    <circle cx="512" cy="512" r="40"/>
  </g>
</svg>
